HIERARCHY
ROOT Hips
{
	OFFSET -3.958830 18.904000 13.208200
	CHANNELS 6 Xposition Yposition Zposition Zrotation Yrotation Xrotation 
	JOINT LHipJoint
	{
		OFFSET 0.000000 0.000000 0.000000
		CHANNELS 3 Zrotation Yrotation Xrotation
		JOINT LeftUpLeg
		{
			OFFSET 1.800000 -1.400000 0.085000
			CHANNELS 3 Zrotation Yrotation Xrotation
			JOINT LeftLeg
			{
				OFFSET 2.215000 -6.000000 0.000000
				CHANNELS 3 Zrotation Yrotation Xrotation
				JOINT LeftFoot
				{
					OFFSET 2.500000 -6.900000 0.000000
					CHANNELS 3 Zrotation Yrotation Xrotation
					JOINT LeftToeBase
					{
						OFFSET 0.200000 -0.500000 1.950000
						CHANNELS 3 Zrotation Yrotation Xrotation
						End Site
						{
							OFFSET 0.000000 0.000000 0.000000
						}
					}
				}
			}
		}
	}
	JOINT RHipJoint
	{
		OFFSET 0.000000 0.000000 0.000000
		CHANNELS 3 Zrotation Yrotation Xrotation
		JOINT RightUpLeg
		{
			OFFSET -1.800000 -1.400000 0.085000
			CHANNELS 3 Zrotation Yrotation Xrotation
			JOINT RightLeg
			{
				OFFSET -2.215000 -6.000000 0.000000
				CHANNELS 3 Zrotation Yrotation Xrotation
				JOINT RightFoot
				{
					OFFSET -2.500000 -6.900000 0.000000
					CHANNELS 3 Zrotation Yrotation Xrotation
					JOINT RightToeBase
					{
						OFFSET -0.200000 -0.500000 1.950000
						CHANNELS 3 Zrotation Yrotation Xrotation
						End Site
						{
							OFFSET 0.000000 0.000000 0.000000
						}
					}
				}
			}
		}
	}
	JOINT LowerBack
	{
		OFFSET 0.000000 0.000000 0.000000
		CHANNELS 3 Zrotation Yrotation Xrotation
		JOINT Spine
		{
			OFFSET -0.087000 1.940000 -0.288900
			CHANNELS 3 Zrotation Yrotation Xrotation
			JOINT Spine1
			{
				OFFSET 0.000000 1.950000 0.060000
				CHANNELS 3 Zrotation Yrotation Xrotation
				JOINT Neck
				{
					OFFSET 0.000000 0.000000 0.000000
					CHANNELS 3 Zrotation Yrotation Xrotation
					JOINT Neck1
					{
						OFFSET 0.000000 1.600000 0.340000
						CHANNELS 3 Zrotation Yrotation Xrotation
						JOINT Head
						{
							OFFSET 0.000000 1.667000 -0.240000
							CHANNELS 3 Zrotation Yrotation Xrotation
							End Site
							{
								OFFSET 0.000000 0.000000 0.000000
							}
						}
					}
				}
				JOINT LeftShoulder
				{
					OFFSET 0.000000 0.000000 0.000000
					CHANNELS 3 Zrotation Yrotation Xrotation
					JOINT LeftArm
					{
						OFFSET 2.700000 1.550000 -0.730000
						CHANNELS 3 Zrotation Yrotation Xrotation
						JOINT LeftForeArm
						{
							OFFSET 5.450000 0.000000 0.000000
							CHANNELS 3 Zrotation Yrotation Xrotation
							JOINT LeftHand
							{
								OFFSET 3.450000 0.000000 0.000000
								CHANNELS 3 Zrotation Yrotation Xrotation
								JOINT LeftHandIndex1
								{
									OFFSET 0.750000 0.000000 0.000000
									CHANNELS 3 Zrotation Yrotation Xrotation
									End Site
									{
										OFFSET 0.000000 0.000000 0.000000
									}
								}
							}
						}
					}
				}
				JOINT RightShoulder
				{
					OFFSET 0.000000 0.000000 0.000000
					CHANNELS 3 Zrotation Yrotation Xrotation
					JOINT RightArm
					{
						OFFSET -2.700000 1.550000 -0.730000
						CHANNELS 3 Zrotation Yrotation Xrotation
						JOINT RightForeArm
						{
							OFFSET -5.450000 0.000000 0.000000
							CHANNELS 3 Zrotation Yrotation Xrotation
							JOINT RightHand
							{
								OFFSET -3.450000 0.000000 0.000000
								CHANNELS 3 Zrotation Yrotation Xrotation
								JOINT RightHandIndex1
								{
									OFFSET -0.750000 0.000000 0.000000
									CHANNELS 3 Zrotation Yrotation Xrotation
									End Site
									{
										OFFSET 0.000000 0.000000 0.000000
									}
								}
							}
						}
					}
				}
			}
		}
	}
}
MOTION
Frames: 10
Frame Time: 0.016667
-0.429810 16.954290 -1.238230 -4.649896 -34.847454 4.566880 -14.951720 14.040053 2.535226 10.938625 -1.183815 -9.681330 -5.678747 7.423246 20.946847 -0.170367 5.340317 2.850549 0.413060 -0.105410 0.499470 18.369359 -10.785264 2.790496 -3.587872 1.712022 -15.133349 10.506447 -6.719895 17.027573 -0.326218 -3.627699 3.224549 -0.105250 0.236980 0.464830 -3.823636 -2.756679 -6.765321 12.913979 -4.073659 4.742763 -6.421359 -3.678277 6.805714 3.170199 -5.060903 -10.512597 -13.725547 13.141411 43.656461 -6.426950 12.889780 -0.364490 -9.204379 -5.139921 4.353177 -61.566224 -8.694557 -1.146668 -17.693300 -18.746654 0.506860 -3.844025 3.041528 0.561560 0.224600 0.068850 0.215710 2.811970 7.386828 5.055013 68.301549 7.723970 -6.418319 17.833034 18.814687 0.873810 2.218485 -1.513503 -0.102600 -0.008730 -0.114090 -0.263250 
-0.430330 16.955410 -1.239480 -4.601595 -34.844651 4.499595 -14.952876 14.050712 2.541201 10.923091 -1.180555 -9.662818 -5.694628 7.430352 20.944858 -0.166785 5.342700 2.849566 0.410310 -0.106210 0.493690 18.366854 -10.782360 2.785347 -3.593700 1.730191 -15.224246 10.415518 -6.737299 17.270799 -0.324782 -3.632907 3.222716 -0.106820 0.239440 0.463100 -3.815947 -2.784698 -6.768974 12.875537 -4.114572 4.776803 -6.432208 -3.682396 6.991823 3.144940 -5.156288 -10.753628 -14.028040 13.282750 43.704911 -6.293950 12.854710 -0.264380 -8.978175 -5.665906 4.584853 -61.306846 -8.747842 -1.204344 -18.042949 -19.132549 0.574161 -3.836520 3.049558 0.560240 0.223810 0.067670 0.215810 2.654901 7.996663 5.252656 67.910274 7.828490 -6.421272 18.206810 19.015235 0.931032 2.215747 -1.519020 -0.101800 -0.007090 -0.111520 -0.260290 
-0.430990 16.956150 -1.240670 -4.548901 -34.851435 4.440055 -14.953905 14.061781 2.547853 10.903602 -1.177954 -9.650127 -5.713523 7.437479 20.939392 -0.163056 5.345035 2.849271 0.407250 -0.107790 0.487360 18.364301 -10.778981 2.780612 -3.600217 1.755078 -15.339812 10.321394 -6.755951 17.535527 -0.322756 -3.638796 3.221269 -0.108800 0.242970 0.461460 -3.808311 -2.813998 -6.773503 12.840636 -4.155485 4.821922 -6.452969 -3.683540 7.146194 3.122909 -5.262602 -10.989040 -14.346825 13.434731 43.700087 -6.153200 12.821970 -0.150970 -8.811816 -6.177155 4.806950 -60.985380 -8.760020 -1.281624 -18.405223 -19.534108 0.646437 -3.829362 3.057217 0.558840 0.223570 0.065830 0.216530 2.551443 8.599714 5.449237 67.477943 7.898179 -6.437826 18.589620 19.227210 0.990249 2.213320 -1.523941 -0.101410 -0.005350 -0.109070 -0.257090 
-0.431740 16.956700 -1.241730 -4.498474 -34.848649 4.380989 -14.954578 14.074160 2.554544 10.885035 -1.176599 -9.642196 -5.720478 7.441286 20.938263 -0.159707 5.346409 2.849312 0.403100 -0.110640 0.480280 18.361790 -10.775649 2.776510 -3.601887 1.780360 -15.456124 10.222847 -6.773882 17.802008 -0.320067 -3.644598 3.220716 -0.111390 0.246630 0.459150 -3.800700 -2.845041 -6.779448 12.814027 -4.201128 4.878480 -6.484024 -3.686913 7.275715 3.111949 -5.368222 -11.224435 -14.667022 13.585009 43.691915 -6.027990 12.798300 -0.018810 -8.708068 -6.691597 5.023697 -60.603188 -8.737196 -1.374936 -18.769421 -19.938603 0.721822 -3.822528 3.063727 0.557520 0.223530 0.063440 0.217120 2.489033 9.204737 5.650305 67.016291 7.934087 -6.469094 18.970100 19.444702 1.050006 2.211150 -1.527490 -0.101680 -0.003490 -0.106230 -0.254170 
-0.432600 16.957070 -1.242880 -4.451832 -34.845337 4.331018 -14.954857 14.086662 2.561157 10.871926 -1.176764 -9.645645 -5.724511 7.445775 20.945793 -0.154496 5.347082 2.849874 0.398790 -0.113290 0.472790 18.359569 -10.772019 2.773229 -3.597544 1.810355 -15.587579 10.125700 -6.793057 18.083605 -0.317591 -3.651120 3.219890 -0.114510 0.250260 0.456870 -3.794147 -2.876138 -6.786074 12.799303 -4.248836 4.943166 -6.525075 -3.690578 7.379254 3.105890 -5.479534 -11.452854 -14.996417 13.734426 43.649909 -5.913290 12.781550 0.132840 -8.660693 -7.189513 5.230521 -60.169173 -8.683020 -1.481733 -19.132974 -20.347652 0.801907 -3.815623 3.070862 0.555000 0.223440 0.061030 0.218200 2.472902 9.796432 5.849470 66.536277 7.935577 -6.514615 19.339508 19.667462 1.108160 2.210230 -1.531001 -0.101060 -0.002270 -0.103960 -0.250540 
-0.433780 16.957130 -1.243810 -4.402269 -34.838951 4.290474 -14.955170 14.097998 2.568290 10.863582 -1.177973 -9.654653 -5.744063 7.453078 20.940771 -0.148228 5.347544 2.850851 0.394760 -0.115870 0.465580 18.357558 -10.767712 2.769839 -3.590547 1.843642 -15.731852 10.025604 -6.812585 18.378900 -0.314983 -3.658818 3.218440 -0.117830 0.254030 0.454980 -3.788276 -2.906782 -6.792456 12.789263 -4.293603 5.005189 -6.577439 -3.690961 7.460126 3.100178 -5.594014 -11.666376 -15.324123 13.877709 43.550668 -5.791170 12.761580 0.298010 -8.652590 -7.652970 5.419255 -59.703775 -8.617824 -1.585944 -19.493729 -20.745657 0.885775 -3.809070 3.078673 0.551670 0.223580 0.058240 0.219420 2.494359 10.353106 6.042745 66.057420 7.894178 -6.578884 19.700611 19.901676 1.164717 2.210111 -1.534995 -0.099890 -0.002050 -0.102330 -0.246570 
-0.435140 16.956560 -1.244640 -4.353176 -34.821138 4.265955 -14.955487 14.108144 2.575139 10.858508 -1.181438 -9.678294 -5.765237 7.458916 20.929326 -0.142510 5.347537 2.852619 0.389950 -0.119470 0.457140 18.355830 -10.762546 2.766914 -3.582988 1.880806 -15.892214 9.935043 -6.835131 18.680632 -0.311899 -3.668459 3.216740 -0.121180 0.259100 0.453000 -3.783274 -2.936672 -6.798366 12.785081 -4.337308 5.061415 -6.640716 -3.689873 7.522916 3.094938 -5.707452 -11.864377 -15.632516 14.010457 43.380506 -5.659210 12.737590 0.478580 -8.666391 -8.085437 5.591762 -59.222306 -8.545041 -1.688630 -19.851554 -21.138384 0.972522 -3.803578 3.086438 0.547850 0.224650 0.054260 0.221140 2.535611 10.874511 6.229130 65.589538 7.819058 -6.655800 20.071162 20.132925 1.221080 2.209552 -1.539242 -0.099500 -0.001670 -0.100380 -0.242530 
-0.436490 16.955750 -1.245250 -4.291282 -34.796021 4.242507 -14.955797 14.117300 2.582233 10.843574 -1.186369 -9.706119 -5.792336 7.464420 20.911236 -0.136030 5.347015 2.854988 0.384210 -0.124130 0.447930 18.354186 -10.757250 2.763876 -3.592516 1.918376 -16.064782 9.859108 -6.863921 18.991995 -0.308715 -3.680860 3.213754 -0.125170 0.265180 0.451290 -3.778713 -2.965711 -6.803924 12.776710 -4.379033 5.111684 -6.718056 -3.685542 7.569666 3.089664 -5.819941 -12.053221 -15.931271 14.132686 43.173205 -5.511290 12.701510 0.680770 -8.703305 -8.500171 5.754219 -58.717336 -8.460650 -1.790343 -20.202551 -21.516057 1.060934 -3.798823 3.094389 0.543240 0.226080 0.049830 0.223080 2.599672 11.376265 6.412023 65.138005 7.716872 -6.739654 20.427139 20.340438 1.272577 2.210000 -1.543052 -0.099140 -0.001380 -0.098120 -0.237800 
-0.437960 16.954740 -1.245640 -4.220041 -34.764068 4.219755 -14.956152 14.125667 2.589382 10.826251 -1.193044 -9.739283 -5.826790 7.473167 20.899750 -0.128015 5.347653 2.857511 0.377900 -0.128880 0.437830 18.352624 -10.751486 2.760841 -3.614649 1.955044 -16.243118 9.798624 -6.897306 19.303195 -0.305642 -3.695517 3.210019 -0.129270 0.272230 0.449730 -3.774543 -2.994650 -6.809251 12.765451 -4.423768 5.160925 -6.813873 -3.683040 7.596110 3.084884 -5.930840 -12.226925 -16.214194 14.249400 42.920018 -5.352000 12.665570 0.898400 -8.769354 -8.882625 5.901673 -58.180325 -8.359243 -1.892603 -20.563136 -21.880357 1.154917 -3.794750 3.102503 0.537480 0.228050 0.045190 0.225720 2.690754 11.841211 6.584875 64.715368 7.589124 -6.831704 20.769052 20.534926 1.319887 2.211327 -1.546851 -0.098650 -0.001020 -0.096180 -0.232140 
-0.439000 16.953460 -1.245830 -4.148409 -34.715611 4.207359 -14.956408 14.133661 2.596082 10.803813 -1.202742 -9.787478 -5.853929 7.479326 20.894157 -0.119972 5.347568 2.861090 0.369970 -0.134850 0.425830 18.351341 -10.745444 2.757856 -3.640447 1.990947 -16.431446 9.739962 -6.931090 19.610623 -0.301409 -3.711277 3.206711 -0.133780 0.281130 0.447600 -3.771184 -3.023558 -6.813773 12.762825 -4.476147 5.207580 -6.918061 -3.688360 7.606446 3.080424 -6.041507 -12.382833 -16.478377 14.353379 42.607506 -5.195250 12.628750 1.148860 -8.861296 -9.229546 6.032415 -57.634615 -8.248358 -1.995930 -20.925450 -22.249765 1.254659 -3.792292 3.110386 0.530210 0.231460 0.038750 0.228500 2.805729 12.265638 6.747105 64.295859 7.438050 -6.929175 21.121893 20.733466 1.368520 2.212410 -1.550787 -0.098770 -0.000220 -0.093480 -0.226010 
